<?xml version="1.0" encoding="UTF-8"?>
<svg version="1.1" xmlns="http://www.w3.org/2000/svg" width="500" height="500">
<path d="M0 0 C165 0 330 0 500 0 C500 165 500 330 500 500 C335 500 170 500 0 500 C0 335 0 170 0 0 Z " fill="#000000" transform="translate(0,0)"/>
<path d="M0 0 C2.16856283 7.22854277 1.38604222 15.2894404 -0.46606445 22.4934082 C-1.05570779 25.26152347 -1.33195369 27.96538893 -1.56640625 30.78515625 C-1.6912439 32.25480835 -1.6912439 32.25480835 -1.81860352 33.75415039 C-1.87846436 34.49528076 -1.9383252 35.23641113 -2 36 C-1.30140869 35.83395264 -0.60281738 35.66790527 0.11694336 35.49682617 C20.61440176 30.64389256 40.74924562 26.90471322 61.66601562 24.53271484 C62.34491852 24.45559265 63.02382141 24.37847046 63.72329712 24.29901123 C65.13910644 24.13903161 66.55510885 23.98075322 67.97128296 23.82403564 C72.16858847 23.35218619 76.35034324 22.81758269 80.53173828 22.22021484 C94.24123804 20.2988787 107.67229228 19.52694777 121.51367188 19.60888672 C124.79077414 19.62520301 128.06668085 19.60879477 131.34375 19.58984375 C145.93452729 19.5739348 158.04871284 19.67437441 170 29 C169.34 30.32 168.68 31.64 168 33 C168 32.01 168 31.02 168 30 C167.01 30 166.02 30 165 30 C164.67 29.34 164.34 28.68 164 28 C163.40832031 28.01160156 162.81664062 28.02320312 162.20703125 28.03515625 C157.97955086 28.0834309 154.12905292 28.00436422 150 27 C148.00102872 26.66055205 146.00124361 26.32578384 144 26 C144.33 26.99 144.66 27.98 145 29 C146.98 29.99 146.98 29.99 149 31 C144.05 31.495 144.05 31.495 139 32 C142.18762365 34.12508244 144.26512223 34.5020163 148 35 C148 35.33 148 35.66 148 36 C144.97961911 36.33794471 141.95880244 36.67048433 138.9375 37 C138.08994141 37.09539062 137.24238281 37.19078125 136.36914062 37.2890625 C132.55741011 37.70114148 128.83619932 38.05222125 125 37.96875 C121.9870243 37.69815054 121.9870243 37.69815054 120.0625 39.5 C119.711875 39.995 119.36125 40.49 119 41 C119.99 41.33 120.98 41.66 122 42 C120.68 42 119.36 42 118 42 C118 41.34 118 40.68 118 40 C113.07051165 39.03343366 110.55499628 39.09602478 106 41 C103.71967885 41.58760049 101.42642949 42.12644088 99.125 42.625 C97.95195312 42.88539062 96.77890625 43.14578125 95.5703125 43.4140625 C92 44 92 44 88.31640625 43.99609375 C85.28365863 43.99966589 83.54460305 44.26016075 80.8125 45.4375 C78.2238786 46.52883326 75.74208678 47.37375845 73 48 C73 48.33 73 48.66 73 49 C72.19175781 49.19335938 71.38351562 49.38671875 70.55078125 49.5859375 C68.94783203 49.97652344 68.94783203 49.97652344 67.3125 50.375 C66.25675781 50.63023438 65.20101562 50.88546875 64.11328125 51.1484375 C61.26271802 51.92813986 58.64303366 52.67610206 56 54 C55.67 54.99 55.34 55.98 55 57 C53.35 56.34 51.7 55.68 50 55 C50.33 55.33 50.66 55.66 51 56 C46.97164579 58.68556947 43.6072385 60.00489113 38.8125 60.5 C34.98575286 60.6081437 34.98575286 60.6081437 33 63 C30.5 63.125 30.5 63.125 28 63 C25.9254644 62.8509288 25.9254644 62.8509288 24 64 C23.27840576 65.64363134 22.60648579 67.31050386 22 69 C21.278125 68.938125 20.55625 68.87625 19.8125 68.8125 C16.9544652 68.77970421 16.9544652 68.77970421 14.7421875 70.41796875 C10.67781616 72.76279837 6.4336611 73.28668736 1.86328125 74.15625 C-1.30045478 74.75591225 -1.30045478 74.75591225 -3 78 C-3.66 78 -4.32 78 -5 78 C-5.66 79.65 -6.32 81.3 -7 83 C-7.66 83 -8.32 83 -9 83 C-9.06058594 84.27617187 -9.12117187 85.55234375 -9.18359375 86.8671875 C-9.26799568 88.53647016 -9.35264386 90.20574037 -9.4375 91.875 C-9.47681641 92.71675781 -9.51613281 93.55851562 -9.55664062 94.42578125 C-9.59853516 95.23144531 -9.64042969 96.03710938 -9.68359375 96.8671875 C-9.73858032 97.98262939 -9.73858032 97.98262939 -9.79467773 99.12060547 C-10 101 -10 101 -11 103 C-11.16287064 105.87738133 -11.28016348 108.74526838 -11.375 111.625 C-11.82512854 122.57645686 -13.16352888 133.35343441 -14.62695312 144.20898438 C-15.1741171 148.30268761 -15.68101262 152.40110729 -16.1875 156.5 C-16.45811178 158.66669435 -16.72890395 160.83336619 -17 163 C-12.89179512 162.32778321 -8.78416373 161.65218659 -4.67700195 160.97363281 C-3.28359529 160.74389205 -1.8900435 160.51502956 -0.49633789 160.28710938 C8.71725301 158.80911628 8.71725301 158.80911628 17.84765625 156.8984375 C26.92990578 154.80580721 36.22040956 154.76491594 45.5 154.6875 C46.65886719 154.65849609 47.81773437 154.62949219 49.01171875 154.59960938 C56.52703829 154.54441211 62.27122551 155.60588185 69 159 C69 159.99 69 160.98 69 162 C66.69 162.99 64.38 163.98 62 165 C62.99 167.475 62.99 167.475 64 170 C63.01 170 62.02 170 61 170 C60.62875 171.2065625 60.62875 171.2065625 60.25 172.4375 C59 175 59 175 56.875 175.8125 C56.25625 175.874375 55.6375 175.93625 55 176 C55 176.66 55 177.32 55 178 C51.62615324 180.24923117 50.09696465 180.30189703 46.125 180.5 C41.80629311 180.7133363 41.80629311 180.7133363 37.70336914 181.93603516 C34.72884349 183.10671905 31.87278541 183.7437837 28.73828125 184.3671875 C26.93520508 184.73650391 26.93520508 184.73650391 25.09570312 185.11328125 C22.59384696 185.61701068 20.09124932 186.11707276 17.58789062 186.61328125 C11.04753504 187.95972245 4.9958744 189.53022814 -1.12036133 192.23486328 C-3 193 -3 193 -5 193 C-5.33 193.99 -5.66 194.98 -6 196 C-8.07421875 196.9140625 -8.07421875 196.9140625 -10.6875 197.625 C-11.53699219 197.86476562 -12.38648438 198.10453125 -13.26171875 198.3515625 C-16.16013966 199.0379218 -19.05735836 199.54330891 -22 200 C-22.08040527 200.67353516 -22.16081055 201.34707031 -22.24365234 202.04101562 C-23.66528271 213.94133943 -25.09118597 225.84055865 -26.59765625 237.73046875 C-26.94942589 240.58902402 -27.26552736 243.44785627 -27.5625 246.3125 C-28 250 -28 250 -29 253 C-29.12413687 254.60274497 -29.22619748 256.20727314 -29.3125 257.8125 C-29.62875078 261.42605395 -29.8138652 262.74406465 -32 265.75 C-34.68235403 270.1088253 -34.57206101 273.83383823 -34.7265625 278.87890625 C-34.87500254 282.32868844 -35.41431225 285.65107466 -35.98828125 289.0546875 C-37.13514311 296.22669209 -37.40542269 303.31012546 -37.5625 310.5625 C-37.78149284 319.41074267 -38.1535883 328.18736054 -39 337 C-40.32 337.33 -41.64 337.66 -43 338 C-43.33 339.98 -43.66 341.96 -44 344 C-44.33 344 -44.66 344 -45 344 C-45 342.35 -45 340.7 -45 339 C-45.66 339 -46.32 339 -47 339 C-46.67 340.98 -46.34 342.96 -46 345 C-51.39607843 348.89019608 -51.39607843 348.89019608 -54.75 349.5 C-55.4925 349.665 -56.235 349.83 -57 350 C-58.25827123 351.84982472 -58.25827123 351.84982472 -59 354 C-59.66 354.99 -60.32 355.98 -61 357 C-61.66 356.67 -62.32 356.34 -63 356 C-63 356.66 -63 357.32 -63 358 C-67.38461538 361 -67.38461538 361 -70 361 C-70 361.99 -70 362.98 -70 364 C-70.78375 364.2475 -71.5675 364.495 -72.375 364.75 C-75.32317108 366.15389099 -75.9024777 367.00675737 -77 370 C-81.39663309 369.51148521 -83.12431091 368.31257263 -86 365 C-91.49488697 355.78724225 -92.63856463 347.87529639 -92.11328125 337.32421875 C-92.07589844 336.22722656 -92.03851563 335.13023437 -92 334 C-92.33 333.67 -92.66 333.34 -93 333 C-93.01675649 331.65835151 -92.96265599 330.31569932 -92.87890625 328.9765625 C-92.80639648 327.70655396 -92.80639648 327.70655396 -92.73242188 326.41088867 C-92.64831055 325.03187378 -92.64831055 325.03187378 -92.5625 323.625 C-92.16693508 316.46881553 -91.93449512 309.35432883 -92 302.1875 C-92.06342232 293.77699633 -91.90393061 285.36972786 -91 277 C-90.67 276.67 -90.34 276.34 -90 276 C-89.79621665 274.25762421 -89.6525819 272.50813026 -89.53515625 270.7578125 C-89.45716797 269.69175781 -89.37917969 268.62570312 -89.29882812 267.52734375 C-89.14183468 265.26715712 -88.9881646 263.00673708 -88.83789062 260.74609375 C-88.75861328 259.67746094 -88.67933594 258.60882813 -88.59765625 257.5078125 C-88.53070557 256.52441895 -88.46375488 255.54102539 -88.39477539 254.52783203 C-88 252 -88 252 -86 249 C-85.48059101 246.24464551 -85.48059101 246.24464551 -85.21875 243.125 C-85.09886719 241.97515625 -84.97898438 240.8253125 -84.85546875 239.640625 C-84.73816406 238.43921875 -84.62085938 237.2378125 -84.5 236 C-84.26803242 233.62424408 -84.0287827 231.24918465 -83.78125 228.875 C-83.67876953 227.82054687 -83.57628906 226.76609375 -83.47070312 225.6796875 C-83 223 -83 223 -81 220 C-80.62910732 217.1635139 -80.49545768 214.35199089 -80.34375 211.49609375 C-80 209 -80 209 -78 207 C-84.6 207 -91.2 207 -98 207 C-98 207.66 -98 208.32 -98 209 C-100.97 208.34 -103.94 207.68 -107 207 C-107 206.01 -107 205.02 -107 204 C-108.65 204 -110.3 204 -112 204 C-112 199.97871336 -110.5685855 198.7320272 -107.9453125 195.828125 C-98.66841259 187.11007448 -84.93871168 182.70511742 -73 179 C-72.9175 177.824375 -72.835 176.64875 -72.75 175.4375 C-72.12846538 169.67002432 -70.52261334 164.20798945 -68.9375 158.6484375 C-68.0266203 155.10359734 -67.5105505 151.61943834 -67 148 C-66.67 147.67 -66.34 147.34 -66 147 C-65.6809218 144.97173635 -65.4088441 142.93604898 -65.15625 140.8984375 C-64.07734343 133.01642561 -62.36526117 125.35920009 -60.5 117.625 C-60.18824322 116.31133042 -59.87704375 114.99752845 -59.56640625 113.68359375 C-58.97696456 111.20186714 -58.38224899 108.72138479 -57.78125 106.24243164 C-57.30875605 104.28143411 -56.84716366 102.31770387 -56.40625 100.34936523 C-55.9957315 98.55194367 -55.50824061 96.77227007 -55 95 C-53 93.8125 -53 93.8125 -51 93 C-49.76709799 90.54295238 -49.76709799 90.54295238 -49 88 C-48.67 87.34 -48.34 86.68 -48 86 C-47.01 86 -46.02 86 -45 86 C-45 83.69 -45 81.38 -45 79 C-48.465 79.99 -48.465 79.99 -52 81 C-52 81.66 -52 82.32 -52 83 C-51.34 83 -50.68 83 -50 83 C-50 83.66 -50 84.32 -50 85 C-62.72258065 89.82580645 -62.72258065 89.82580645 -66.75 90.375 C-70.46611299 91.08963711 -73.64861846 92.3694475 -77.1328125 93.8203125 C-81.45488906 95.59860558 -85.8380265 97.21351647 -90.21484375 98.8515625 C-93.13777126 99.95055772 -93.13777126 99.95055772 -96 102 C-96.9075 102.103125 -97.815 102.20625 -98.75 102.3125 C-101.96609538 102.99282787 -102.91419423 103.53922098 -105.375 105.5 C-109.22233016 108.4561891 -112.17056206 108.91814512 -117 109 C-117.66 108.34 -118.32 107.68 -119 107 C-121.03951356 106.72625377 -121.03951356 106.72625377 -123.3125 106.6875 C-126.92073373 106.35842908 -127.82258492 106.14515779 -130.75 103.75 C-131.4925 102.8425 -132.235 101.935 -133 101 C-134.2684375 99.7625 -134.2684375 99.7625 -135.5625 98.5 C-136.7690625 97.2625 -136.7690625 97.2625 -138 96 C-138.763125 95.2575 -139.52625 94.515 -140.3125 93.75 C-144.13314528 87.52376324 -141.83390006 80.29868913 -140.2421875 73.578125 C-138.52775759 70.01987424 -136.46546457 67.80919541 -133 66 C-129.32252973 65.09754419 -125.64347443 64.80257824 -121.875 64.5 C-112.7241525 63.58856101 -104.09101357 62.05500679 -95.24560547 59.53710938 C-94.09535889 59.21709961 -94.09535889 59.21709961 -92.921875 58.890625 C-92.25768555 58.69500977 -91.59349609 58.49939453 -90.90917969 58.29785156 C-88.65736631 57.94654564 -87.17497688 58.37779696 -85 59 C-82.05739645 59 -80.66035706 58.58832789 -78 57.5 C-75.33964294 56.41167211 -73.94260355 56 -71 56 C-70.505 55.01 -70.505 55.01 -70 54 C-68.171875 53.5078125 -68.171875 53.5078125 -65.75 53.125 C-60.31798199 52.1558342 -55.20901499 50.54965908 -49.98046875 48.8046875 C-47.15637264 48.04221856 -44.90451705 47.83893621 -42 48 C-41.81824219 46.98292969 -41.81824219 46.98292969 -41.6328125 45.9453125 C-39.52068154 36.11477704 -35.91213544 26.47106157 -32.5625 17 C-32.29872559 16.22382324 -32.03495117 15.44764648 -31.76318359 14.64794922 C-29.76867313 9.13134421 -27.1378415 4.22532505 -23 0 C-16.39221291 -2.68791339 -6.25161165 -4.14879682 0 0 Z " fill="#FCFCFC" transform="translate(285,44)"/>
<path d="M0 0 C0.33 0 0.66 0 1 0 C1.21155531 6.84028844 1.06079288 13.09850595 -0.66015625 19.74609375 C-1.05962584 22.39544956 -0.65108861 24.4184109 0 27 C1.32 27 2.64 27 4 27 C3.34 22.71 2.68 18.42 2 14 C2.66 14 3.32 14 4 14 C4.33 11.69 4.66 9.38 5 7 C7.37530761 8.83546497 7.95963942 9.76478383 8.4765625 12.77734375 C8.55003906 14.34162109 8.55003906 14.34162109 8.625 15.9375 C8.80718745 19.4381018 9.04446378 22.62429419 10 26 C10 28 10 30 10 32 C10.99 32 11.98 32 13 32 C13.33 34.97 13.66 37.94 14 41 C14.144375 40.195625 14.28875 39.39125 14.4375 38.5625 C15 36 15 36 16 35 C16.36162029 33.67405895 16.69728039 32.34061543 17 31 C18.25217391 38.51304348 18.25217391 38.51304348 17.09375 40.75 C15.46923572 44.09185795 15.26833995 47.60032109 14.875 51.25 C14.78863281 51.99507813 14.70226562 52.74015625 14.61328125 53.5078125 C14.40213133 55.33777846 14.20015455 57.16879879 14 59 C12 57 12 57 11.9375 53.9375 C11.958125 52.968125 11.97875 51.99875 12 51 C11.505 50.505 11.505 50.505 11 50 C10.67 51.32 10.34 52.64 10 54 C9.34 53.01 8.68 52.02 8 51 C8.09539062 51.67546875 8.19078125 52.3509375 8.2890625 53.046875 C8.45535156 54.38492188 8.45535156 54.38492188 8.625 55.75 C8.74101562 56.63171875 8.85703125 57.5134375 8.9765625 58.421875 C9.00207817 61.22859878 8.44843844 62.63384866 7 65 C6.34 64.34 5.68 63.68 5 63 C4.96261719 63.65226562 4.92523438 64.30453125 4.88671875 64.9765625 C4.48506238 70.31622957 3.83238391 74.3204092 1 79 C-1.18975773 75.71536341 -1.99806563 72.79303725 -3 69 C-2.01 68.505 -2.01 68.505 -1 68 C-1.09539062 67.25234375 -1.19078125 66.5046875 -1.2890625 65.734375 C-1.39992187 64.74953125 -1.51078125 63.7646875 -1.625 62.75 C-1.74101562 61.77546875 -1.85703125 60.8009375 -1.9765625 59.796875 C-2.0018539 56.77876783 -1.37419513 55.60677472 0 53 C0.16674559 50.64336258 0.16674559 50.64336258 0 48.1875 C-0.1042821 43.75551096 0.66738766 40.24770182 2 36 C2.16928543 33.20755955 2.16928543 33.20755955 2 31 C0.32246673 36.30748972 -0.54705027 41.40907924 -1.125 46.9375 C-1.21136719 47.71673828 -1.29773438 48.49597656 -1.38671875 49.29882812 C-1.59651323 51.1986337 -1.79901994 53.09924174 -2 55 C-2.66 55 -3.32 55 -4 55 C-5.34533948 51.07455741 -4.9684818 47.20003408 -4.73046875 43.12890625 C-4.68940506 42.36956284 -4.64834137 41.61021942 -4.60603333 40.8278656 C-4.51739042 39.22483179 -4.42557819 37.6219705 -4.33081055 36.01928711 C-4.18823917 33.57517169 -4.0613054 31.13057804 -3.93554688 28.68554688 C-3.84730395 27.12494601 -3.75814154 25.5643968 -3.66796875 24.00390625 C-3.63140671 23.27667862 -3.59484467 22.54945099 -3.55717468 21.80018616 C-3.30663846 17.80585517 -2.64274741 14.64004463 -1 11 C-0.7240522 9.07096868 -0.51550097 7.1310968 -0.375 5.1875 C-0.26285156 3.72376953 -0.26285156 3.72376953 -0.1484375 2.23046875 C-0.09945312 1.49441406 -0.05046875 0.75835937 0 0 Z " fill="#E4E4E4" transform="translate(207,321)"/>
<path d="M0 0 C0.91007812 0.00902344 1.82015625 0.01804687 2.7578125 0.02734375 C3.80582031 0.04474609 3.80582031 0.04474609 4.875 0.0625 C4.545 0.7225 4.215 1.3825 3.875 2.0625 C4.865 3.0525 4.865 3.0525 5.875 4.0625 C4.76125 4.35125 3.6475 4.64 2.5 4.9375 C-1.12791092 5.75491329 -1.12791092 5.75491329 -3.125 8.0625 C-5.25 7.6875 -5.25 7.6875 -7.125 7.0625 C-7.455 7.7225 -7.785 8.3825 -8.125 9.0625 C-9.32125 9.02125 -10.5175 8.98 -11.75 8.9375 C-15.57451626 8.91722871 -18.50326356 9.82781712 -22.125 11.0625 C-24.5 10.6875 -24.5 10.6875 -26.125 10.0625 C-25.795 9.4025 -25.465 8.7425 -25.125 8.0625 C-25.77984375 8.32804687 -26.4346875 8.59359375 -27.109375 8.8671875 C-33.97195551 11.52304493 -40.7645988 13.43477348 -48.125 14.0625 C-48.455 13.7325 -48.785 13.4025 -49.125 13.0625 C-50.0325 13.2275 -50.94 13.3925 -51.875 13.5625 C-55.03872977 14.04922766 -57.06673339 13.87204116 -60.125 13.0625 C-60.125 12.7325 -60.125 12.4025 -60.125 12.0625 C-59.320625 11.93875 -58.51625 11.815 -57.6875 11.6875 C-56.841875 11.48125 -55.99625 11.275 -55.125 11.0625 C-54.795 10.4025 -54.465 9.7425 -54.125 9.0625 C-53.485625 9.124375 -52.84625 9.18625 -52.1875 9.25 C-49.33825749 9.07555658 -47.52282567 8.5802576 -44.875 7.625 C-41.04822973 6.27363228 -37.55560333 5.65866462 -33.52734375 5.3046875 C-30.76310909 5.02601669 -28.05017453 4.59763969 -25.3125 4.125 C-23.97251953 3.89490234 -23.97251953 3.89490234 -22.60546875 3.66015625 C-20.18568311 3.07712128 -18.33646988 2.17053377 -16.125 1.0625 C-12.875 0.9375 -12.875 0.9375 -10.125 1.0625 C-9.63 3.0425 -9.63 3.0425 -9.125 5.0625 C-8.83625 4.423125 -8.5475 3.78375 -8.25 3.125 C-6.25239707 -0.53727203 -3.84912529 -0.04934776 0 0 Z " fill="#414141" transform="translate(412.125,80.9375)"/>
<path d="M0 0 C0.33 0 0.66 0 1 0 C1.21155531 6.84028844 1.06079288 13.09850595 -0.66015625 19.74609375 C-1.05962584 22.39544956 -0.65108861 24.4184109 0 27 C1.32 27 2.64 27 4 27 C3.34 22.71 2.68 18.42 2 14 C2.66 14 3.32 14 4 14 C4.33 11.69 4.66 9.38 5 7 C6.45703125 8.05078125 6.45703125 8.05078125 8 10 C8.51171875 13.35546875 8.51171875 13.35546875 8.6875 17.1875 C8.78611328 19.09595703 8.78611328 19.09595703 8.88671875 21.04296875 C8.92410156 22.01878906 8.96148437 22.99460937 9 24 C8.67 24 8.34 24 8 24 C7.67 26.31 7.34 28.62 7 31 C6.67 31 6.34 31 6 31 C4.9609622 35.42682491 4.68407049 39.78934632 4.4375 44.3125 C4.39431641 45.05306641 4.35113281 45.79363281 4.30664062 46.55664062 C4.20129568 48.37091464 4.10021684 50.1854355 4 52 C2.68 52 1.36 52 0 52 C-0.23643001 46.20746468 0.2798156 41.5905993 2 36 C2.16928543 33.20755955 2.16928543 33.20755955 2 31 C0.32246673 36.30748972 -0.54705027 41.40907924 -1.125 46.9375 C-1.21136719 47.71673828 -1.29773438 48.49597656 -1.38671875 49.29882812 C-1.59651323 51.1986337 -1.79901994 53.09924174 -2 55 C-2.66 55 -3.32 55 -4 55 C-5.34533948 51.07455741 -4.9684818 47.20003408 -4.73046875 43.12890625 C-4.68940506 42.36956284 -4.64834137 41.61021942 -4.60603333 40.8278656 C-4.51739042 39.22483179 -4.42557819 37.6219705 -4.33081055 36.01928711 C-4.18823917 33.57517169 -4.0613054 31.13057804 -3.93554688 28.68554688 C-3.84730395 27.12494601 -3.75814154 25.5643968 -3.66796875 24.00390625 C-3.63140671 23.27667862 -3.59484467 22.54945099 -3.55717468 21.80018616 C-3.30663846 17.80585517 -2.64274741 14.64004463 -1 11 C-0.7240522 9.07096868 -0.51550097 7.1310968 -0.375 5.1875 C-0.26285156 3.72376953 -0.26285156 3.72376953 -0.1484375 2.23046875 C-0.09945312 1.49441406 -0.05046875 0.75835937 0 0 Z " fill="#5C5C5C" transform="translate(207,321)"/>
<path d="M0 0 C0.66 0.66 1.32 1.32 2 2 C2.66 1.67 3.32 1.34 4 1 C4.25 8.625 4.25 8.625 2 12 C2.10253791 14.55917526 2.50956348 16.99846719 2.90625 19.52734375 C3.01162172 22.30652296 2.43500221 23.65725018 1 26 C0.34 25.34 -0.32 24.68 -1 24 C-1.03738281 24.65226562 -1.07476562 25.30453125 -1.11328125 25.9765625 C-1.51493762 31.31622957 -2.16761609 35.3204092 -5 40 C-7.18975773 36.71536341 -7.99806563 33.79303725 -9 30 C-8.34 29.67 -7.68 29.34 -7 29 C-7.09539062 28.25234375 -7.19078125 27.5046875 -7.2890625 26.734375 C-7.39992187 25.74953125 -7.51078125 24.7646875 -7.625 23.75 C-7.74101562 22.77546875 -7.85703125 21.8009375 -7.9765625 20.796875 C-8.00128375 17.8468053 -7.49497619 16.48782298 -6 14 C-6 13.67 -6 13.34 -6 13 C-4.35 13 -2.7 13 -1 13 C-0.67 8.71 -0.34 4.42 0 0 Z " fill="#BBBBBB" transform="translate(213,360)"/>
<path d="M0 0 C4.83441687 -0.09479249 9.25800317 -0.02529661 14 1 C15.9996441 1.03772913 18.00054061 1.04649906 20 1 C20.33 1.99 20.66 2.98 21 4 C21.99 4 22.98 4 24 4 C24.625 5.875 24.625 5.875 25 8 C24.34 8.66 23.68 9.32 23 10 C22.67 9.67 22.34 9.34 22 9 C21.67 9.66 21.34 10.32 21 11 C20.236875 10.835 19.47375 10.67 18.6875 10.5 C15.96403764 9.90854604 15.96403764 9.90854604 13 10 C12.34 8.35 11.68 6.7 11 5 C9.53984709 5.28241641 8.08190207 5.57626614 6.625 5.875 C5.40683594 6.11863281 5.40683594 6.11863281 4.1640625 6.3671875 C1.81326077 6.86658932 1.81326077 6.86658932 0 9 C-2.625 9.125 -2.625 9.125 -5 9 C-5.33 8.01 -5.66 7.02 -6 6 C-3.69 5.34 -1.38 4.68 1 4 C0.67 2.68 0.34 1.36 0 0 Z " fill="#181818" transform="translate(429,70)"/>
<path d="M0 0 C0.66 0 1.32 0 2 0 C2 0.66 2 1.32 2 2 C2.66 2 3.32 2 4 2 C3.85923685 3.9587043 3.7122324 5.91696093 3.5625 7.875 C3.48128906 8.96554687 3.40007812 10.05609375 3.31640625 11.1796875 C3 14 3 14 2 16 C1.34 16 0.68 16 0 16 C0.495 17.8253125 0.495 17.8253125 1 19.6875 C1.80322213 22.87210604 2.20641973 25.6972843 2 29 C0.35 29.33 -1.3 29.66 -3 30 C-3.92407132 24.82520064 -4.05876874 21.34601975 -2.54296875 16.21875 C-1.67264024 12.66229969 -1.49797953 9.06260182 -1.24609375 5.41796875 C-1 3 -1 3 0 0 Z " fill="#DDDDDD" transform="translate(209,319)"/>
<path d="M0 0 C0.33 0 0.66 0 1 0 C1.18275311 5.90901717 1.26609934 11.52551359 -0.0625 17.3125 C-1.02375706 21.53396456 -0.78039979 24.70780116 0 29 C0.42332219 37.74865863 -0.88633271 46.33924815 -2 55 C-2.66 55 -3.32 55 -4 55 C-5.34533948 51.07455741 -4.9684818 47.20003408 -4.73046875 43.12890625 C-4.68940506 42.36956284 -4.64834137 41.61021942 -4.60603333 40.8278656 C-4.51739042 39.22483179 -4.42557819 37.6219705 -4.33081055 36.01928711 C-4.18823917 33.57517169 -4.0613054 31.13057804 -3.93554688 28.68554688 C-3.84730395 27.12494601 -3.75814154 25.5643968 -3.66796875 24.00390625 C-3.63140671 23.27667862 -3.59484467 22.54945099 -3.55717468 21.80018616 C-3.30663846 17.80585517 -2.64274741 14.64004463 -1 11 C-0.7240522 9.07096868 -0.51550097 7.1310968 -0.375 5.1875 C-0.26285156 3.72376953 -0.26285156 3.72376953 -0.1484375 2.23046875 C-0.09945312 1.49441406 -0.05046875 0.75835937 0 0 Z " fill="#6D6D6D" transform="translate(207,321)"/>
<path d="M0 0 C-1.98 0.99 -1.98 0.99 -4 2 C-4 2.66 -4 3.32 -4 4 C-5.97793521 4.36098063 -7.95739573 4.71361348 -9.9375 5.0625 C-11.03964844 5.25972656 -12.14179688 5.45695312 -13.27734375 5.66015625 C-14.17582031 5.77230469 -15.07429688 5.88445312 -16 6 C-16.33 5.67 -16.66 5.34 -17 5 C-17.9075 5.165 -18.815 5.33 -19.75 5.5 C-22.91372977 5.98672766 -24.94173339 5.80954116 -28 5 C-28 4.67 -28 4.34 -28 4 C-27.195625 3.87625 -26.39125 3.7525 -25.5625 3.625 C-24.716875 3.41875 -23.87125 3.2125 -23 3 C-22.67 2.34 -22.34 1.68 -22 1 C-20.9790625 1.0928125 -20.9790625 1.0928125 -19.9375 1.1875 C-16.84196849 1.18483053 -16.84196849 1.18483053 -13.8125 -0.625 C-9.12873907 -2.85289513 -4.78877306 -1.3393148 0 0 Z " fill="#C3C3C3" transform="translate(380,89)"/>
<path d="M0 0 C0.66 0.66 1.32 1.32 2 2 C0 5 0 5 -2.4375 5.625 C-3.283125 5.74875 -4.12875 5.8725 -5 6 C-5.99 6.33 -6.98 6.66 -8 7 C-8.99 7 -9.98 7 -11 7 C-12.7015625 7.2475 -12.7015625 7.2475 -14.4375 7.5 C-18 8 -18 8 -22 8 C-21.34 7.67 -20.68 7.34 -20 7 C-19.7834375 6.01 -19.7834375 6.01 -19.5625 5 C-19.376875 4.34 -19.19125 3.68 -19 3 C-18.01 2.67 -17.02 2.34 -16 2 C-16 2.66 -16 3.32 -16 4 C-11.88422017 2.71282249 -11.88422017 2.71282249 -8 0.875 C-5.22763343 -0.33791037 -2.98860214 -0.25987845 0 0 Z " fill="#4B4B4B" transform="translate(329,103)"/>
<path d="M0 0 C0.90105469 0.01804687 1.80210937 0.03609375 2.73046875 0.0546875 C3.41753906 0.07789062 4.10460937 0.10109375 4.8125 0.125 C4.4825 0.785 4.1525 1.445 3.8125 2.125 C4.4725 2.785 5.1325 3.445 5.8125 4.125 C4.69875 4.41375 3.585 4.7025 2.4375 5 C-1.19041092 5.81741329 -1.19041092 5.81741329 -3.1875 8.125 C-5.3125 7.75 -5.3125 7.75 -7.1875 7.125 C-7.5175 7.785 -7.8475 8.445 -8.1875 9.125 C-10.4975 9.125 -12.8075 9.125 -15.1875 9.125 C-14.4375 6.6875 -14.4375 6.6875 -13.1875 4.125 C-11.125 3.375 -11.125 3.375 -9.1875 3.125 C-8.8575 2.795 -8.5275 2.465 -8.1875 2.125 C-4.87379 -0.08414 -3.8428979 -0.09981553 0 0 Z " fill="#686868" transform="translate(412.1875,80.875)"/>
<path d="M0 0 C0.66 0.33 1.32 0.66 2 1 C1.25 7.75 1.25 7.75 -1 10 C-3.625 10.625 -3.625 10.625 -6 11 C-6.33 11.99 -6.66 12.98 -7 14 C-8.65 13.67 -10.3 13.34 -12 13 C-11.67 11.35 -11.34 9.7 -11 8 C-7.535 7.505 -7.535 7.505 -4 7 C-4 6.34 -4 5.68 -4 5 C-4.66 5 -5.32 5 -6 5 C-6 4.34 -6 3.68 -6 3 C-4.03533587 1.93224776 -2.03144641 0.93446535 0 0 Z " fill="#2C2C2C" transform="translate(239,122)"/>
<path d="M0 0 C2.17975966 3.26963949 2.36904422 4.21729678 2 8 C1.68804687 8.54269531 1.37609375 9.08539063 1.0546875 9.64453125 C-0.47178321 13.05364917 -0.72886239 16.57436248 -1.125 20.25 C-1.21136719 20.99507813 -1.29773438 21.74015625 -1.38671875 22.5078125 C-1.59786867 24.33777846 -1.79984545 26.16879879 -2 28 C-4 26 -4 26 -4.16015625 23.3203125 C-4.12792969 22.26585937 -4.09570312 21.21140625 -4.0625 20.125 C-3.95967051 16.48573033 -4.0821919 13.50572604 -5 10 C-4.72949547 7.99053778 -4.40632091 5.98645776 -4 4 C-4.99 4.33 -5.98 4.66 -7 5 C-6.67 3.68 -6.34 2.36 -6 1 C-5.01 1 -4.02 1 -3 1 C-2.67 3.97 -2.34 6.94 -2 10 C-1.855625 9.195625 -1.71125 8.39125 -1.5625 7.5625 C-1 5 -1 5 0 4 C0 2.68 0 1.36 0 0 Z " fill="#808080" transform="translate(223,352)"/>
<path d="M0 0 C-0.99 0.33 -1.98 0.66 -3 1 C-2.01 1.66 -1.02 2.32 0 3 C-1.59915881 3.69906942 -3.20455045 4.38389468 -4.8125 5.0625 C-5.70582031 5.44535156 -6.59914063 5.82820313 -7.51953125 6.22265625 C-10 7 -10 7 -13 6 C-12.34 5.34 -11.68 4.68 -11 4 C-12.66666667 5.66666667 -14.33333333 7.33333333 -16 9 C-16 8.01 -16 7.02 -16 6 C-16.928125 6.309375 -16.928125 6.309375 -17.875 6.625 C-18.57625 6.74875 -19.2775 6.8725 -20 7 C-20.66 6.34 -21.32 5.68 -22 5 C-21.34 4.01 -20.68 3.02 -20 2 C-17.525 2.99 -17.525 2.99 -15 4 C-14.67 3.01 -14.34 2.02 -14 1 C-12.41913952 0.63495397 -10.83516093 0.28339494 -9.25 -0.0625 C-8.36828125 -0.25972656 -7.4865625 -0.45695312 -6.578125 -0.66015625 C-4.01320972 -0.99825872 -2.42908361 -0.81158635 0 0 Z " fill="#797979" transform="translate(355,96)"/>
<path d="M0 0 C0.66 0.99 1.32 1.98 2 3 C2.33 2.01 2.66 1.02 3 0 C2.53430878 7.8187104 1.77541538 15.36399015 0 23 C-1.515625 21.875 -1.515625 21.875 -3 20 C-3.109375 17.1875 -3.109375 17.1875 -2.75 14 C-2.64171875 12.948125 -2.5334375 11.89625 -2.421875 10.8125 C-2 8 -2 8 -1 5 C-0.65179959 3.33637583 -0.31595508 1.67004829 0 0 Z " fill="#CACACA" transform="translate(276,58)"/>
<path d="M0 0 C0 0.99 0 1.98 0 3 C6.74233419 3.12910853 13.30386804 2.797837 20 2 C19.67 2.99 19.34 3.98 19 5 C13.72 5 8.44 5 3 5 C3 5.66 3 6.32 3 7 C-1.455 6.01 -1.455 6.01 -6 5 C-6 4.01 -6 3.02 -6 2 C-3 0 -3 0 0 0 Z " fill="#B3B3B3" transform="translate(184,246)"/>
<path d="M0 0 C3.39267175 3.50211277 4.70237702 6.24380846 5.1171875 10.99609375 C4.934575 14.11876743 3.63134564 16.38984698 2 19 C-0.18975773 15.71536341 -0.99806563 12.79303725 -2 9 C-1.34 8.67 -0.68 8.34 0 8 C0 5.36 0 2.72 0 0 Z " fill="#A4A4A4" transform="translate(206,381)"/>
<path d="M0 0 C2.8503026 3.20945602 3.43451699 5.49988548 3.6875 9.75 C3.78611328 11.22726562 3.78611328 11.22726562 3.88671875 12.734375 C3.92410156 13.48203125 3.96148437 14.2296875 4 15 C2.35 15.33 0.7 15.66 -1 16 C-2.08360869 9.93179132 -1.79074734 5.89893243 0 0 Z " fill="#EBEBEB" transform="translate(207,333)"/>
<path d="M0 0 C0.6875 1.75 0.6875 1.75 1 4 C-0.4375 6.25 -0.4375 6.25 -2 8 C-2 6.35 -2 4.7 -2 3 C-2.66 3.66 -3.32 4.32 -4 5 C-9.48571429 6.25714286 -9.48571429 6.25714286 -12 5 C-11.0518738 2.62968451 -10.31103322 1.23327492 -8.25 -0.3125 C-5.24827907 -1.22969251 -3.02230874 -0.68688835 0 0 Z " fill="#C9C9C9" transform="translate(271,44)"/>
<path d="M0 0 C1.98 0 3.96 0 6 0 C5.67 0.66 5.34 1.32 5 2 C6.98 2.66 8.96 3.32 11 4 C11 4.33 11 4.66 11 5 C10.06027344 5.18175781 10.06027344 5.18175781 9.1015625 5.3671875 C8.28429687 5.53476563 7.46703125 5.70234375 6.625 5.875 C5.40683594 6.11863281 5.40683594 6.11863281 4.1640625 6.3671875 C1.81326077 6.86658932 1.81326077 6.86658932 0 9 C-2.625 9.125 -2.625 9.125 -5 9 C-5.33 8.01 -5.66 7.02 -6 6 C-3.69 5.34 -1.38 4.68 1 4 C0.67 2.68 0.34 1.36 0 0 Z " fill="#7A7A7A" transform="translate(429,70)"/>
<path d="M0 0 C0 0.66 0 1.32 0 2 C-5.24385089 3.7479503 -9.47322267 4.19392201 -15 4 C-15 3.34 -15 2.68 -15 2 C-16.98 2.33 -18.96 2.66 -21 3 C-20 1 -20 1 -17 0 C-14.4849074 -0.0671811 -11.98763267 0.00180675 -9.47265625 0.0625 C-7.03168646 0.09603514 -7.03168646 0.09603514 -4.87109375 -0.5625 C-3 -1 -3 -1 0 0 Z " fill="#1D1D1D" transform="translate(366,94)"/>
<path d="M0 0 C1.65 0.33 3.3 0.66 5 1 C5 1.33 5 1.66 5 2 C7.97 2.495 7.97 2.495 11 3 C11 3.33 11 3.66 11 4 C7.89886548 4.42261828 4.79423176 4.80841143 1.6875 5.1875 C0.80642578 5.30802734 -0.07464844 5.42855469 -0.98242188 5.55273438 C-2.25375977 5.70258789 -2.25375977 5.70258789 -3.55078125 5.85546875 C-4.33106689 5.95496826 -5.11135254 6.05446777 -5.9152832 6.15698242 C-8 6 -8 6 -9.77807617 4.5090332 C-10.18131104 4.01105225 -10.5845459 3.51307129 -11 3 C-8.08291076 1.01637931 -6.87619096 1.0123809 -3.25 1.375 C-2.1775 1.58125 -1.105 1.7875 0 2 C0 1.34 0 0.68 0 0 Z " fill="#EFEFEF" transform="translate(422,76)"/>
<path d="M0 0 C0.33 0 0.66 0 1 0 C1 8.25 1 16.5 1 25 C0.34 25 -0.32 25 -1 25 C-1.833211 22.13769884 -2.08371405 19.74892812 -1.9140625 16.77734375 C-1.87023437 15.99166016 -1.82640625 15.20597656 -1.78125 14.39648438 C-1.7296875 13.58501953 -1.678125 12.77355469 -1.625 11.9375 C-1.58117187 11.12216797 -1.53734375 10.30683594 -1.4921875 9.46679688 C-1.29042053 6.05637465 -1.08812282 3.26436846 0 0 Z " fill="#343434" transform="translate(204,351)"/>
<path d="M0 0 C1.625 2 1.625 2 3 4 C-0.28696233 4.79953138 -1.71023192 5.09658936 -5 4 C-7.3406065 4.27769908 -9.67624308 4.60539977 -12 5 C-12.33 5.99 -12.66 6.98 -13 8 C-15.31 7.67 -17.62 7.34 -20 7 C-20 6.67 -20 6.34 -20 6 C-19.195625 5.87625 -18.39125 5.7525 -17.5625 5.625 C-16.716875 5.41875 -15.87125 5.2125 -15 5 C-14.67 4.34 -14.34 3.68 -14 3 C-12.9790625 3.0928125 -12.9790625 3.0928125 -11.9375 3.1875 C-7.58961797 2.90997562 -4.23189318 0 0 0 Z " fill="#969696" transform="translate(372,87)"/>
<path d="M0 0 C0.33 0.66 0.66 1.32 1 2 C1.66 2 2.32 2 3 2 C3.99 5.63 4.98 9.26 6 13 C5.01 13 4.02 13 3 13 C1.66018514 13.3062434 0.32488113 13.63451555 -1 14 C-1.042721 12.33388095 -1.04063832 10.66617115 -1 9 C-0.67 8.67 -0.34 8.34 0 8 C0.07148199 6.64756083 0.08399454 5.29165633 0.0625 3.9375 C0.041875 2.638125 0.02125 1.33875 0 0 Z " fill="#C1C1C1" transform="translate(217,376)"/>
<path d="M0 0 C0.33 0 0.66 0 1 0 C1 1.98 1 3.96 1 6 C1.66 5.01 2.32 4.02 3 3 C3.33 5.31 3.66 7.62 4 10 C2.68 10.33 1.36 10.66 0 11 C-0.33 12.98 -0.66 14.96 -1 17 C-1.33 17 -1.66 17 -2 17 C-2 15.35 -2 13.7 -2 12 C-3.32 12 -4.64 12 -6 12 C-5.67 11.01 -5.34 10.02 -5 9 C-5 9.66 -5 10.32 -5 11 C-4.01 11 -3.02 11 -2 11 C-2.226875 10.484375 -2.45375 9.96875 -2.6875 9.4375 C-3.16513722 5.71192968 -1.61290239 3.35483696 0 0 Z " fill="#838383" transform="translate(242,371)"/>
<path d="M0 0 C0 0.66 0 1.32 0 2 C-2.39287704 2.8427743 -4.78871019 3.67437002 -7.1875 4.5 C-8.19780273 4.85771484 -8.19780273 4.85771484 -9.22851562 5.22265625 C-12.93204467 6.48727592 -16.07940536 7.30451221 -20 7 C-19.01 6.34 -18.02 5.68 -17 5 C-16.34 4.34 -15.68 3.68 -15 3 C-12.5390625 2.1484375 -12.5390625 2.1484375 -9.625 1.375 C-8.66851562 1.11460938 -7.71203125 0.85421875 -6.7265625 0.5859375 C-4 0 -4 0 0 0 Z " fill="#5D5D5D" transform="translate(214,98)"/>
<path d="M0 0 C1.98 0 3.96 0 6 0 C5.67 2.31 5.34 4.62 5 7 C4.67 7 4.34 7 4 7 C4 9.31 4 11.62 4 14 C3.01 14.33 2.02 14.66 1 15 C0.67 10.05 0.34 5.1 0 0 Z " fill="#F5F5F5" transform="translate(214,371)"/>
<path d="M0 0 C0.66 0.66 1.32 1.32 2 2 C2.66 1.67 3.32 1.34 4 1 C4.25 8.625 4.25 8.625 2 12 C1.54860541 14.0492094 1.54860541 14.0492094 1.375 16.1875 C1.25125 17.445625 1.1275 18.70375 1 20 C0.67 20 0.34 20 0 20 C0 13.4 0 6.8 0 0 Z " fill="#4E4E4E" transform="translate(213,360)"/>
<path d="M0 0 C0.33 0 0.66 0 1 0 C0.58955515 6.57791873 0.13391403 12.74051886 -2 19 C-4.52664158 15.21003764 -3.9838127 13.90287617 -3.25 9.5 C-3.06953125 8.3553125 -2.8890625 7.210625 -2.703125 6.03125 C-2 3 -2 3 0 0 Z " fill="#7D7D7D" transform="translate(262,157)"/>
<path d="M0 0 C0.66 1.65 1.32 3.3 2 5 C-2.29 4.67 -6.58 4.34 -11 4 C-10.67 3.01 -10.34 2.02 -10 1 C-6.59437148 0.22157062 -3.49234244 -0.09978121 0 0 Z " fill="#060606" transform="translate(440,75)"/>
<path d="M0 0 C0.33 0 0.66 0 1 0 C1.07347656 1.01320313 1.07347656 1.01320313 1.1484375 2.046875 C1.22320312 2.93890625 1.29796875 3.8309375 1.375 4.75 C1.44460937 5.63171875 1.51421875 6.5134375 1.5859375 7.421875 C1.8700127 10.01320972 1.8700127 10.01320972 3.09375 12.1875 C3.3928125 12.785625 3.691875 13.38375 4 14 C3.125 16.25 3.125 16.25 2 18 C-1.53160185 14.46839815 -1.35069769 9.82338857 -2 5 C-1.34 5 -0.68 5 0 5 C0 3.35 0 1.7 0 0 Z " fill="#919191" transform="translate(212,368)"/>
<path d="M0 0 C0 4.29 0 8.58 0 13 C-1.32 13 -2.64 13 -4 13 C-4.47081122 4.83927218 -4.47081122 4.83927218 -2.5625 1.4375 C-1 0 -1 0 0 0 Z " fill="#171717" transform="translate(211,360)"/>
<path d="M0 0 C-1.66302124 3.32604248 -4.62976481 3.80042476 -8 5 C-10.4375 4.6875 -10.4375 4.6875 -12 4 C-11.34 3.67 -10.68 3.34 -10 3 C-10.99 2.34 -11.98 1.68 -13 1 C-8.23947038 -0.97387813 -5.03511899 -1.0070238 0 0 Z " fill="#6C6C6C" transform="translate(388,87)"/>
<path d="M0 0 C8.03501094 -0.63019694 8.03501094 -0.63019694 12.0625 2 C12.701875 2.66 13.34125 3.32 14 4 C13.34 5.32 12.68 6.64 12 8 C12 7.01 12 6.02 12 5 C11.01 5 10.02 5 9 5 C8.67 4.34 8.34 3.68 8 3 C5.03 3 2.06 3 -1 3 C-0.67 2.01 -0.34 1.02 0 0 Z " fill="#C5C5C5" transform="translate(441,69)"/>
<path d="M0 0 C-0.99 0.33 -1.98 0.66 -3 1 C-3.6837045 2.32467746 -4.34964186 3.65863633 -5 5 C-5.99 5.66 -6.98 6.32 -8 7 C-8.33 6.01 -8.66 5.02 -9 4 C-9.33 4.99 -9.66 5.98 -10 7 C-10.33 5.35 -10.66 3.7 -11 2 C-7.36576791 -0.32590854 -4.22911669 -0.16265833 0 0 Z " fill="#5B5B5B" transform="translate(294,117)"/>
<path d="M0 0 C0 1.98 0 3.96 0 6 C-0.99 5.67 -1.98 5.34 -3 5 C-3 4.01 -3 3.02 -3 2 C-3.969375 1.87625 -4.93875 1.7525 -5.9375 1.625 C-6.948125 1.41875 -7.95875 1.2125 -9 1 C-9.33 0.34 -9.66 -0.32 -10 -1 C-6.06329512 -2.31223496 -3.87511856 -1.24296256 0 0 Z " fill="#242424" transform="translate(443,72)"/>
<path d="M0 0 C0.33 0 0.66 0 1 0 C0.48517081 5.852795 -0.45357192 11.3297637 -2 17 C-2.33 17 -2.66 17 -3 17 C-3.23534715 11.23399495 -2.93384486 6.46026785 -1 1 C-0.67 0.67 -0.34 0.34 0 0 Z " fill="#DDDDDD" transform="translate(209,351)"/>
<path d="M0 0 C0.66 0.99 1.32 1.98 2 3 C2.33 2.01 2.66 1.02 3 0 C2.67 3.63 2.34 7.26 2 11 C1.34 11 0.68 11 0 11 C-0.33 12.32 -0.66 13.64 -1 15 C-1.02685412 12.68756208 -1.04632841 10.3750373 -1.0625 8.0625 C-1.07410156 6.77472656 -1.08570313 5.48695312 -1.09765625 4.16015625 C-1 1 -1 1 0 0 Z " fill="#D8D8D8" transform="translate(276,58)"/>
<path d="M0 0 C2.32590854 3.63423209 2.16265833 6.77088331 2 11 C1.34 11 0.68 11 0 11 C-0.33 12.32 -0.66 13.64 -1 15 C-2.13129791 9.97200929 -1.85122426 6.02222315 -1 1 C-0.67 0.67 -0.34 0.34 0 0 Z " fill="#D8D8D8" transform="translate(218,360)"/>
<path d="M0 0 C4.12989477 4.26311718 4.61271765 7.28758534 5 13 C2.64829956 10.86209051 1.11208165 8.99406599 0 6 C-0.125 2.75 -0.125 2.75 0 0 Z " fill="#3E3E3E" transform="translate(206,381)"/>
<path d="M0 0 C0 0.66 0 1.32 0 2 C1.32 2.33 2.64 2.66 4 3 C2.9375 4.5 2.9375 4.5 1 6 C-2.6875 6.1875 -2.6875 6.1875 -6 6 C-3.84615385 0 -3.84615385 0 0 0 Z " fill="#292929" transform="translate(403,84)"/>
<path d="M0 0 C0.66 0.66 1.32 1.32 2 2 C1.9765625 5.0390625 1.9765625 5.0390625 1.625 8.625 C1.51414063 9.81351562 1.40328125 11.00203125 1.2890625 12.2265625 C1.19367188 13.14179688 1.09828125 14.05703125 1 15 C0.34 14.34 -0.32 13.68 -1 13 C-0.9765625 9.9609375 -0.9765625 9.9609375 -0.625 6.375 C-0.51414063 5.18648438 -0.40328125 3.99796875 -0.2890625 2.7734375 C-0.19367188 1.85820312 -0.09828125 0.94296875 0 0 Z " fill="#616161" transform="translate(220,365)"/>
<path d="M0 0 C1.32 0.33 2.64 0.66 4 1 C4.625 3.875 4.625 3.875 5 7 C4.34 7.66 3.68 8.32 3 9 C0.70620251 5.55930376 0 4.27709699 0 0 Z " fill="#EBEBEB" transform="translate(202,382)"/>
<path d="M0 0 C0.33 0 0.66 0 1 0 C1 4.62 1 9.24 1 14 C-0.32 13.01 -1.64 12.02 -3 11 C-3 9.68 -3 8.36 -3 7 C-2.34 7 -1.68 7 -1 7 C-0.67 4.69 -0.34 2.38 0 0 Z " fill="#B4B4B4" transform="translate(246,355)"/>
<path d="M0 0 C0.66 0.66 1.32 1.32 2 2 C0.54494642 2.52992692 -0.91418127 3.0486789 -2.375 3.5625 C-3.59316406 3.99755859 -3.59316406 3.99755859 -4.8359375 4.44140625 C-7 5 -7 5 -9 4 C-9 3.34 -9 2.68 -9 2 C-7.54536519 1.61090015 -6.08608793 1.23911971 -4.625 0.875 C-3.40683594 0.56175781 -3.40683594 0.56175781 -2.1640625 0.2421875 C-1.44992187 0.16226563 -0.73578125 0.08234375 0 0 Z " fill="#5F5F5F" transform="translate(337,223)"/>
<path d="M0 0 C0 0.66 0 1.32 0 2 C-7.42857143 4.42857143 -7.42857143 4.42857143 -11 3 C-10.34 3 -9.68 3 -9 3 C-9 2.34 -9 1.68 -9 1 C-3.375 -1.125 -3.375 -1.125 0 0 Z " fill="#353535" transform="translate(366,94)"/>
<path d="M0 0 C1.65 0.33 3.3 0.66 5 1 C-3.01162791 5.31395349 -3.01162791 5.31395349 -7.375 4.625 C-7.91125 4.41875 -8.4475 4.2125 -9 4 C-6.62216162 1.62216162 -5.27926335 1.40990792 -2 1 C-1.34 1.33 -0.68 1.66 0 2 C0 1.34 0 0.68 0 0 Z " fill="#777777" transform="translate(395,87)"/>
<path d="M0 0 C0 0.66 0 1.32 0 2 C-3.13498292 3.85776765 -5.37471432 4.20140476 -9 4 C-8.67 3.01 -8.34 2.02 -8 1 C-5.29120665 -0.35439668 -2.99066732 -0.06501451 0 0 Z " fill="#363636" transform="translate(413,81)"/>
<path d="M0 0 C-3.32307692 3.93846154 -3.32307692 3.93846154 -6.75 4.25 C-7.4925 4.1675 -8.235 4.085 -9 4 C-9.33 3.01 -9.66 2.02 -10 1 C-6.21812119 -0.83691257 -4.05431692 -1.15837626 0 0 Z " fill="#696969" transform="translate(433,75)"/>
<path d="M0 0 C0.66 0.66 1.32 1.32 2 2 C1.01 2.33 0.02 2.66 -1 3 C-0.01 4.65 0.98 6.3 2 8 C0.68 8 -0.64 8 -2 8 C-2 8.99 -2 9.98 -2 11 C-2.66 11 -3.32 11 -4 11 C-3.71890887 9.35232753 -3.42481474 7.70686855 -3.125 6.0625 C-2.96257812 5.14597656 -2.80015625 4.22945312 -2.6328125 3.28515625 C-2.42398438 2.53105469 -2.21515625 1.77695313 -2 1 C-1.34 0.67 -0.68 0.34 0 0 Z " fill="#AEAEAE" transform="translate(232,138)"/>
<path d="M0 0 C0.66 0.33 1.32 0.66 2 1 C2 4 2 4 1 7 C-0.65 6.67 -2.3 6.34 -4 6 C-3.67 4.35 -3.34 2.7 -3 1 C-2.01 0.67 -1.02 0.34 0 0 Z " fill="#1C1C1C" transform="translate(231,129)"/>
<path d="M0 0 C1.65 0.33 3.3 0.66 5 1 C0.82954142 3.78030572 -2.98663274 4.29986321 -7.9375 3.5625 C-8.618125 3.376875 -9.29875 3.19125 -10 3 C-6.1496895 0.43312633 -4.41430237 1.16711276 0 2 C0 1.34 0 0.68 0 0 Z " fill="#C1C1C1" transform="translate(422,76)"/>
<path d="M0 0 C0.99 0.33 1.98 0.66 3 1 C2.34 2.98 1.68 4.96 1 7 C-0.32 7 -1.64 7 -3 7 C-1.125 1.125 -1.125 1.125 0 0 Z " fill="#0A0A0A" transform="translate(233,132)"/>
<path d="M0 0 C0.33 0.66 0.66 1.32 1 2 C1.99 2.33 2.98 2.66 4 3 C1.1875 5.0625 1.1875 5.0625 -2 7 C-2.99 6.67 -3.98 6.34 -5 6 C-4.34 5.67 -3.68 5.34 -3 5 C-2.835 4.34 -2.67 3.68 -2.5 3 C-2.335 2.34 -2.17 1.68 -2 1 C-1.34 0.67 -0.68 0.34 0 0 Z " fill="#9D9D9D" transform="translate(312,105)"/>
<path d="M0 0 C1.65 0 3.3 0 5 0 C5 0.66 5 1.32 5 2 C5.66 2.33 6.32 2.66 7 3 C5.35 3.66 3.7 4.32 2 5 C1.01 4.01 0.02 3.02 -1 2 C-0.67 1.34 -0.34 0.68 0 0 Z " fill="#1B1B1B" transform="translate(330,102)"/>
<path d="M0 0 C2.31 0.66 4.62 1.32 7 2 C6.67 3.65 6.34 5.3 6 7 C5.67 6.01 5.34 5.02 5 4 C4.071875 4.309375 4.071875 4.309375 3.125 4.625 C2.42375 4.74875 1.7225 4.8725 1 5 C0.34 4.34 -0.32 3.68 -1 3 C-0.67 2.01 -0.34 1.02 0 0 Z " fill="#5A5A5A" transform="translate(334,98)"/>
<path d="M0 0 C0 0.66 0 1.32 0 2 C0.99 2.66 1.98 3.32 3 4 C1.02 4.66 -0.96 5.32 -3 6 C-3.99 4.68 -4.98 3.36 -6 2 C-2.25 0 -2.25 0 0 0 Z " fill="#181818" transform="translate(391,84)"/>
<path d="M0 0 C1.625 2 1.625 2 3 4 C1.35 4.33 -0.3 4.66 -2 5 C-2 4.67 -2 4.34 -2 4 C-3.65 3.67 -5.3 3.34 -7 3 C-2.5 0 -2.5 0 0 0 Z " fill="#4E4E4E" transform="translate(372,87)"/>
<path d="M0 0 C1.98 0 3.96 0 6 0 C5.01 1.485 5.01 1.485 4 3 C3.34 3 2.68 3 2 3 C1.01 4.485 1.01 4.485 0 6 C-0.66 5.67 -1.32 5.34 -2 5 C-1.34 3.35 -0.68 1.7 0 0 Z " fill="#AEAEAE" transform="translate(236,132)"/>
<path d="M0 0 C0 0.66 0 1.32 0 2 C-5.41538462 4.21538462 -5.41538462 4.21538462 -8.375 3.125 C-8.91125 2.75375 -9.4475 2.3825 -10 2 C-6.38026598 0.68373308 -3.90432869 0 0 0 Z " fill="#8D8D8D" transform="translate(214,98)"/>
<path d="M0 0 C2.15502531 3.23253796 2.46856135 4.25150923 2 8 C0.5 9.8125 0.5 9.8125 -1 11 C-1.04254356 9.00045254 -1.04080783 6.99958364 -1 5 C-0.67 4.67 -0.34 4.34 0 4 C0 2.68 0 1.36 0 0 Z " fill="#6B6B6B" transform="translate(223,352)"/>
<path d="M0 0 C0 0.99 0 1.98 0 3 C-0.99 3.33 -1.98 3.66 -3 4 C-3 3.34 -3 2.68 -3 2 C-3.66 2 -4.32 2 -5 2 C-5.33 2.99 -5.66 3.98 -6 5 C-6.33 3.68 -6.66 2.36 -7 1 C-4 0 -4 0 0 0 Z " fill="#929292" transform="translate(269,43)"/>
<path d="M0 0 C1.98 0 3.96 0 6 0 C5.67 0.99 5.34 1.98 5 3 C3.02 3.33 1.04 3.66 -1 4 C-0.67 2.68 -0.34 1.36 0 0 Z " fill="#9D9D9D" transform="translate(396,82)"/>
</svg>
